<?xml version="1.0" encoding="UTF-8"?>
<!DOCTYPE svg PUBLIC "-//W3C//DTD SVG 1.1//EN" "http://www.w3.org/Graphics/SVG/1.1/DTD/svg11.dtd">
<!-- Creator: CorelDRAW -->
<svg xmlns="http://www.w3.org/2000/svg" xml:space="preserve" width="2048px" height="2048px" style="shape-rendering:geometricPrecision; text-rendering:geometricPrecision; image-rendering:optimizeQuality; fill-rule:evenodd; clip-rule:evenodd"
viewBox="0 0 2048 2048"
 xmlns:xlink="http://www.w3.org/1999/xlink">
 <defs>
  <style type="text/css">
   <![CDATA[
    .fil2 {fill:none}
    .fil0 {fill:#424242}
    .fil1 {fill:#424242;fill-rule:nonzero}
   ]]>
  </style>
 </defs>
 <g id="Layer_x0020_1">
  <metadata id="CorelCorpID_0Corel-Layer"/>
  <g id="_325743816">
   <g>
    <polygon id="_325746216" class="fil0" points="870.881,983.974 822.435,875.164 735.999,983.974 "/>
    <polygon id="_325746432" class="fil0" points="884.918,979.666 1005.1,868.549 835.368,868.549 "/>
    <polygon id="_325745064" class="fil0" points="1146.08,983.976 1023.98,871.071 901.915,983.976 "/>
    <polygon id="_325745016" class="fil0" points="1162.98,979.575 1212.45,868.549 1042.9,868.549 "/>
    <polygon id="_325744992" class="fil0" points="1312,983.974 1225.63,875.252 1177.2,983.974 "/>
    <polygon id="_325745640" class="fil0" points="1048.16,1273.65 1310.06,998.898 1170.55,998.898 "/>
    <polygon id="_325745472" class="fil0" points="1024,1291.57 1154.38,998.898 893.494,998.9 "/>
    <polygon id="_325745232" class="fil0" points="999.861,1273.67 877.525,998.898 737.94,998.898 "/>
   </g>
   <g>
    <path id="_325745280" class="fil1" d="M1024 458.107c156.256,0 297.733,63.3473 400.138,165.756 102.41,102.406 165.756,243.882 165.756,400.138 0,156.255 -63.3461,297.731 -165.756,400.138 -102.405,102.409 -243.881,165.756 -400.138,165.756 -156.252,0 -297.728,-63.3473 -400.138,-165.756 -102.409,-102.406 -165.756,-243.882 -165.756,-400.138 0,-156.255 63.3473,-297.731 165.756,-400.138 102.41,-102.409 243.886,-165.756 400.138,-165.756zm228.663 337.232c-58.5083,-58.5107 -139.356,-94.7044 -228.663,-94.7044 -89.3032,0 -170.151,36.1937 -228.662,94.7044 -58.5095,58.5071 -94.7044,139.355 -94.7044,228.662 0,89.3068 36.1949,170.154 94.7044,228.662 58.5107,58.5107 139.358,94.7044 228.662,94.7044 89.3068,0 170.154,-36.1937 228.663,-94.7044 58.5095,-58.5071 94.7044,-139.355 94.7044,-228.662 0,-89.3068 -36.1949,-170.154 -94.7044,-228.662z"/>
    <g>
     <polygon id="_325744656" class="fil0" points="921.138,255.996 1126.86,255.996 1188.58,579.365 859.425,579.365 "/>
     <polygon id="_325744440" class="fil0" points="921.138,1792 1126.86,1792 1188.58,1468.63 859.425,1468.63 "/>
    </g>
    <g>
     <polygon id="_325744608" class="fil0" points="1494.33,408.206 1639.8,553.675 1454.78,825.969 1222.03,593.224 "/>
     <polygon id="_325744584" class="fil0" points="408.206,1494.33 553.675,1639.8 825.969,1454.78 593.224,1222.03 "/>
    </g>
    <g>
     <polygon id="_325744344" class="fil0" points="1792,921.14 1792,1126.86 1468.64,1188.58 1468.64,859.426 "/>
     <polygon id="_325743960" class="fil0" points="255.997,921.14 255.997,1126.86 579.367,1188.58 579.367,859.426 "/>
    </g>
    <g>
     <polygon id="_325743648" class="fil0" points="1639.8,1494.33 1494.33,1639.8 1222.03,1454.78 1454.78,1222.03 "/>
     <polygon id="_325743432" class="fil0" points="553.676,408.207 408.207,553.676 593.227,825.97 825.972,593.226 "/>
    </g>
   </g>
  </g>
 </g>
 <rect class="fil2" width="2048" height="2048"/>
</svg>
